# xmcd
#
# Track frame offsets:
#	150
#	21050
#	35955
#	56069
#	75462
#	91646
#	114774
#	132857
#	147010
#	161621
#
# Disc length: 2440 seconds
#
# Revision: 0
# Processed by: cddbd v1.5.1PL2 Copyright (c) Steve Scherf et al.
# Submitted via: EasyCDDAExtractor 9.0.0.1
#
DISCID=7409860a
DTITLE=Rafet El Roman - En Güzel Günler Senin Olsun
DYEAR=1900
DGENRE=pop
TTITLE0=Affetmem
TTITLE1=Bana Gercekleri Söyle
TTITLE2=Nerdesin
TTITLE3=Ask Degilse
TTITLE4=Bu Nasil Sevgi
TTITLE5=Seni Seviyorum
TTITLE6=Yoklugun Bir Felaket
TTITLE7=Isyan Ediyorum
TTITLE8=Aysem
TTITLE9=En Güzel Günler Senin Olsun
EXTD=
EXTT0=
EXTT1=
EXTT2=
EXTT3=
EXTT4=
EXTT5=
EXTT6=
EXTT7=
EXTT8=
EXTT9=
PLAYORDER=
